<svg width="128" height="128" viewBox="0 0 128 128" fill="none" xmlns="http://www.w3.org/2000/svg">
<rect width="128" height="128" rx="15" fill="white"/>
<path d="M75.828 32.994V57.998C75.828 58.5553 76.1193 58.9227 76.702 59.1C77.2847 59.2773 78.0193 59.366 78.906 59.366H78.982V61H69.292V59.366H69.368C70.2547 59.366 70.9893 59.2773 71.572 59.1C72.1547 58.9227 72.446 58.5553 72.446 57.998V36.452C72.446 36.072 72.3447 35.7807 72.142 35.578C71.9393 35.3753 71.6353 35.2107 71.23 35.084C70.85 34.9573 70.3307 34.8433 69.672 34.742L69.254 34.666V32.994H75.828ZM93.3315 56.022C93.3315 55.49 93.1921 55.0467 92.9135 54.692C92.6348 54.3373 92.2548 54.0333 91.7735 53.78C91.3175 53.5267 90.7855 53.3113 90.1775 53.134C89.5695 52.9567 88.9361 52.792 88.2775 52.64C87.4921 52.4373 86.7195 52.2093 85.9595 51.956C85.1995 51.7027 84.5028 51.3607 83.8695 50.93C83.2361 50.4993 82.7295 49.9673 82.3495 49.334C81.9695 48.6753 81.7795 47.8393 81.7795 46.826C81.7795 45.7367 82.0581 44.774 82.6155 43.938C83.1728 43.102 83.9708 42.456 85.0095 42C86.0481 41.5187 87.3148 41.278 88.8095 41.278C89.9495 41.278 90.9501 41.3667 91.8115 41.544C92.6728 41.7213 93.3948 41.9493 93.9775 42.228C94.5601 42.4813 94.9908 42.722 95.2695 42.95V46.978H92.0395V43.406C92.3181 43.3807 92.5461 43.4187 92.7235 43.52C92.9261 43.6213 93.0781 43.7607 93.1795 43.938C93.2808 44.1153 93.3441 44.318 93.3695 44.546C93.4201 44.7487 93.4075 44.9767 93.3315 45.23C93.0528 44.7993 92.6855 44.4447 92.2295 44.166C91.7735 43.862 91.2541 43.6467 90.6715 43.52C90.1141 43.368 89.4935 43.292 88.8095 43.292C87.4668 43.292 86.4535 43.5833 85.7695 44.166C85.1108 44.7487 84.7815 45.496 84.7815 46.408C84.7815 46.9907 84.9335 47.472 85.2375 47.852C85.5415 48.232 85.9341 48.5487 86.4155 48.802C86.9221 49.0553 87.4921 49.2707 88.1255 49.448C88.7588 49.6253 89.4048 49.8027 90.0635 49.98C90.8235 50.1573 91.5835 50.3853 92.3435 50.664C93.1035 50.9173 93.7875 51.2467 94.3955 51.652C95.0288 52.0573 95.5228 52.5767 95.8775 53.21C96.2575 53.818 96.4475 54.6033 96.4475 55.566C96.4475 56.6807 96.1435 57.6813 95.5355 58.568C94.9275 59.4293 94.0535 60.1133 92.9135 60.62C91.7988 61.1267 90.4561 61.38 88.8855 61.38C87.6695 61.38 86.5675 61.2787 85.5795 61.076C84.6168 60.8733 83.7555 60.62 82.9955 60.316C82.2355 59.9867 81.5641 59.632 80.9815 59.252V54.958H84.2875V59.746C83.9328 59.518 83.6541 59.3027 83.4515 59.1C83.2488 58.872 83.1095 58.6567 83.0335 58.454C82.9575 58.2513 82.9321 58.036 82.9575 57.808C82.9828 57.58 83.0461 57.3393 83.1475 57.086C83.5528 57.618 84.0341 58.0487 84.5915 58.378C85.1741 58.7073 85.8201 58.9607 86.5295 59.138C87.2388 59.29 88.0115 59.366 88.8475 59.366C89.7848 59.366 90.5828 59.2393 91.2415 58.986C91.9001 58.7073 92.4068 58.3273 92.7615 57.846C93.1415 57.3393 93.3315 56.7313 93.3315 56.022ZM109.091 69.474H98.7931V67.84H98.8691C99.4771 67.84 100.009 67.802 100.465 67.726C100.921 67.65 101.276 67.5107 101.529 67.308C101.808 67.1053 101.947 66.8267 101.947 66.472V45.078C101.947 44.698 101.846 44.4193 101.643 44.242C101.44 44.0393 101.136 43.8747 100.731 43.748C100.326 43.6213 99.8064 43.4947 99.1731 43.368L98.7931 43.292V41.658H105.025V46.37L105.329 46.788V67.46C105.329 67.536 105.494 67.5993 105.823 67.65C106.152 67.726 106.532 67.7767 106.963 67.802C107.394 67.8273 107.774 67.84 108.103 67.84H109.091V69.474ZM111.561 61.38C110.497 61.38 109.56 61.228 108.749 60.924C107.938 60.5947 107.191 60.1133 106.507 59.48C105.823 58.8213 105.152 57.9727 104.493 56.934L104.607 54.008C105.19 55.1987 105.81 56.1867 106.469 56.972C107.153 57.7573 107.9 58.3527 108.711 58.758C109.547 59.138 110.434 59.328 111.371 59.328C112.308 59.328 113.132 59.138 113.841 58.758C114.576 58.3527 115.171 57.7953 115.627 57.086C116.108 56.3513 116.463 55.49 116.691 54.502C116.944 53.514 117.071 52.412 117.071 51.196C117.071 49.98 116.944 48.8907 116.691 47.928C116.463 46.9653 116.121 46.142 115.665 45.458C115.209 44.7487 114.626 44.2167 113.917 43.862C113.233 43.5073 112.448 43.33 111.561 43.33C110.548 43.33 109.623 43.5453 108.787 43.976C107.951 44.3813 107.191 45.0147 106.507 45.876C105.848 46.712 105.215 47.7253 104.607 48.916L104.493 46.104C105.202 44.9893 105.899 44.09 106.583 43.406C107.292 42.6967 108.065 42.1647 108.901 41.81C109.762 41.4553 110.738 41.278 111.827 41.278C113.6 41.278 115.146 41.696 116.463 42.532C117.78 43.3427 118.806 44.4953 119.541 45.99C120.276 47.4593 120.643 49.1947 120.643 51.196C120.643 53.1973 120.263 54.9707 119.503 56.516C118.768 58.036 117.717 59.2267 116.349 60.088C114.981 60.9493 113.385 61.38 111.561 61.38Z" fill="#F37726"/>
<path d="M9.2168 71V66.8164L14.6289 65.8867V27.8027L9.2168 26.873V22.6562H14.6289H23.3613L38.9336 59.3457H39.1328L54.207 22.6562H68.7832V26.873L63.3711 27.8027V65.8867L68.7832 66.8164V71H51.418V66.8164L57.1289 65.8867V51.875V31.5879L56.9629 31.5547L41.2578 69.2734H36.9082L20.6719 31.6211L20.5059 31.6543L20.7383 51.875V65.8867L26.582 66.8164V71H9.2168Z" fill="#616161"/>
<path d="M6.38281 81.7949L13.0664 79.5293C14.4258 83.6074 16.8047 86.5339 20.2031 88.3086C23.5638 90.0833 27.7363 90.9707 32.7207 90.9707H44.332C48.3724 90.9707 51.903 91.8203 54.9238 93.5195C57.9447 95.2188 60.2669 97.8431 61.8906 101.393C63.4388 97.8431 65.7233 95.2188 68.7441 93.5195C71.765 91.8203 75.3333 90.9707 79.4492 90.9707H91.1172C96.1016 90.9707 100.293 90.0833 103.691 88.3086C107.128 86.5339 109.507 83.6074 110.828 79.5293L117.455 81.7949C115.378 89.1204 112.074 94.3314 107.543 97.4277C103.049 100.562 97.5742 102.129 91.1172 102.129H79.4492C75.1823 102.129 71.8783 103.092 69.5371 105.018C67.2337 106.943 66.082 109.926 66.082 113.967H57.7559C57.7559 109.926 56.5664 106.943 54.1875 105.018C51.8464 103.092 48.5612 102.129 44.332 102.129H32.7207C26.3014 102.129 20.8262 100.562 16.2949 97.4277C11.7637 94.3314 8.45964 89.1204 6.38281 81.7949Z" fill="#F37726"/>
</svg>
