<svg width="285" height="95" viewBox="0 0 285 95" fill="none" xmlns="http://www.w3.org/2000/svg">
<path d="M259.683 87.5742L258.081 82.8496C260.964 81.8887 263.033 80.207 264.287 77.8047C265.542 75.429 266.169 72.4795 266.169 68.9561V60.748C266.169 57.8919 266.77 55.3962 267.971 53.2607C269.172 51.1253 271.027 49.4837 273.536 48.3359C271.027 47.2415 269.172 45.6266 267.971 43.4912C266.77 41.3558 266.169 38.8333 266.169 35.9238V27.6758C266.169 24.1523 265.542 21.1895 264.287 18.7871C263.033 16.3581 260.964 14.6764 258.081 13.7422L259.683 9.05762C264.861 10.5257 268.545 12.8613 270.733 16.0645C272.949 19.2409 274.057 23.1113 274.057 27.6758V35.9238C274.057 38.9401 274.737 41.2757 276.099 42.9307C277.46 44.5589 279.569 45.373 282.425 45.373V51.2588C279.569 51.2588 277.46 52.0996 276.099 53.7812C274.737 55.4362 274.057 57.7585 274.057 60.748V68.9561C274.057 73.4938 272.949 77.3643 270.733 80.5674C268.545 83.7705 264.861 86.1061 259.683 87.5742Z" fill="#F37726"/>
<path d="M25.2646 87.5742C20.0596 86.1061 16.3493 83.7705 14.1338 80.5674C11.945 77.3643 10.8506 73.4938 10.8506 68.9561V60.748C10.8506 57.7585 10.1699 55.4362 8.80859 53.7812C7.44727 52.0996 5.35189 51.2588 2.52246 51.2588V45.373C5.35189 45.373 7.44727 44.5589 8.80859 42.9307C10.1699 41.2757 10.8506 38.9401 10.8506 35.9238V27.6758C10.8506 23.1113 11.945 19.2409 14.1338 16.0645C16.3493 12.8613 20.0596 10.5257 25.2646 9.05762L26.8662 13.7422C23.93 14.6764 21.8346 16.3581 20.5801 18.7871C19.3522 21.1895 18.7383 24.1523 18.7383 27.6758V35.9238C18.7383 38.7266 18.1777 41.1956 17.0566 43.3311C15.9355 45.4665 14.2406 47.1348 11.9717 48.3359C14.2406 49.5638 15.9355 51.2588 17.0566 53.4209C18.1777 55.5563 18.7383 57.9987 18.7383 60.748V68.9561C18.7383 72.4795 19.3522 75.429 20.5801 77.8047C21.8346 80.207 23.93 81.8887 26.8662 82.8496L25.2646 87.5742Z" fill="#F37726"/>
<path d="M25.5244 67V63.6162L29.9019 62.8643V32.061L25.5244 31.3091V27.8984H36.9648L49.5601 57.5737H49.7212L61.9136 27.8984H73.7031V31.3091L69.3257 32.061V62.8643L73.7031 63.6162V67H59.6577V63.6162L64.2769 62.8643V35.1226L64.1426 35.0957L51.4399 65.6035H47.9219L34.7896 35.1494L34.6553 35.1763L34.8433 51.5312V62.8643L39.5698 63.6162V67H25.5244ZM84.5259 78.7358C84.1141 78.7358 83.577 78.6821 82.9146 78.5747C82.2521 78.4852 81.7419 78.3957 81.3838 78.3062L81.9209 74.1436C82.2253 74.1794 82.646 74.2062 83.1831 74.2241C83.7202 74.2599 84.0872 74.2778 84.2842 74.2778C85.4121 74.2778 86.3252 73.8481 87.0234 72.9888C87.7396 72.1294 88.402 70.9567 89.0107 69.4707L90.2729 66.4092L79.9873 41.7827L76.8721 41.353V37.9424H89.0645V41.353L85.5464 41.8901L91.2129 56.4189L92.5825 60.2056H92.7437L99.4575 41.8901L95.7515 41.353V37.9424H107.702V41.353L104.694 41.7827L93.2539 71.458C92.4482 73.5706 91.374 75.3073 90.0312 76.668C88.6885 78.0465 86.8534 78.7358 84.5259 78.7358ZM124.514 67.564C122.132 67.564 119.841 67.2148 117.639 66.5166C115.437 65.8184 113.333 64.7441 111.328 63.2939V54.9419H115.437L116.323 61.0918C117.486 61.8079 118.749 62.363 120.109 62.7568C121.47 63.1507 122.938 63.3477 124.514 63.3477C127.181 63.3477 129.249 62.7568 130.717 61.5752C132.185 60.3757 132.919 58.8091 132.919 56.8755C132.919 55.0851 132.257 53.5991 130.932 52.4175C129.607 51.2358 127.244 50.2601 123.842 49.4902C119.796 48.5592 116.708 47.1449 114.577 45.2471C112.447 43.3314 111.381 40.9233 111.381 38.0229C111.381 35.9819 111.918 34.1558 112.993 32.5444C114.085 30.9331 115.598 29.6619 117.531 28.731C119.465 27.8 121.721 27.3345 124.299 27.3345C127.038 27.3345 129.455 27.7552 131.55 28.5967C133.662 29.4202 135.399 30.4229 136.76 31.6045V39.4194H132.651L131.765 33.8335C130.959 33.189 129.956 32.6519 128.757 32.2222C127.557 31.7925 126.071 31.5776 124.299 31.5776C122.025 31.5776 120.181 32.1595 118.767 33.3232C117.37 34.487 116.672 36.0267 116.672 37.9424C116.672 39.6253 117.343 41.0039 118.686 42.0781C120.029 43.1344 122.356 44.0744 125.668 44.8979C129.786 45.9185 132.902 47.4313 135.014 49.4365C137.145 51.4238 138.21 53.8856 138.21 56.8218C138.21 58.9165 137.646 60.7785 136.518 62.4077C135.39 64.019 133.797 65.2812 131.738 66.1943C129.697 67.1074 127.289 67.564 124.514 67.564ZM152.443 67V63.6162L156.821 62.8643V31.8999H147.958L147.18 37.3247H143.205V27.8984H175.7V37.3247H171.779L170.974 31.8999H162.111V62.8643L166.489 63.6162V67H152.443Z" fill="#616161"/>
<path d="M194.275 27.355V63.765C194.275 64.5717 194.678 65.1033 195.485 65.36C196.328 65.6167 197.41 65.745 198.73 65.745H198.84V68H184.87V65.745H184.98C186.263 65.745 187.308 65.6167 188.115 65.36C188.958 65.1033 189.38 64.5717 189.38 63.765V32.195C189.38 31.645 189.233 31.2233 188.94 30.93C188.683 30.6367 188.262 30.3983 187.675 30.215C187.088 30.0317 186.337 29.8667 185.42 29.72L184.815 29.61V27.355H194.275ZM219.665 60.905C219.665 60.0983 219.464 59.4383 219.06 58.925C218.657 58.375 218.107 57.9167 217.41 57.55C216.714 57.1833 215.925 56.8717 215.045 56.615C214.165 56.3583 213.249 56.1017 212.295 55.845C211.195 55.5517 210.077 55.2217 208.94 54.855C207.84 54.4517 206.832 53.9567 205.915 53.37C204.999 52.7467 204.265 51.9583 203.715 51.005C203.165 50.015 202.89 48.805 202.89 47.375C202.89 45.7983 203.294 44.405 204.1 43.195C204.907 41.985 206.062 41.05 207.565 40.39C209.069 39.6933 210.884 39.345 213.01 39.345C214.66 39.345 216.09 39.4733 217.3 39.73C218.547 39.9867 219.592 40.3167 220.435 40.72C221.279 41.0867 221.902 41.435 222.305 41.765V47.54H217.74V42.26C218.107 42.26 218.419 42.3333 218.675 42.48C218.969 42.6267 219.189 42.8467 219.335 43.14C219.519 43.3967 219.629 43.6717 219.665 43.965C219.702 44.2583 219.665 44.57 219.555 44.9C219.189 44.3133 218.675 43.8183 218.015 43.415C217.392 42.975 216.659 42.645 215.815 42.425C215.009 42.205 214.074 42.095 213.01 42.095C211.03 42.095 209.564 42.535 208.61 43.415C207.657 44.295 207.18 45.395 207.18 46.715C207.18 47.5583 207.382 48.2733 207.785 48.86C208.225 49.4467 208.812 49.9233 209.545 50.29C210.279 50.62 211.104 50.9317 212.02 51.225C212.937 51.4817 213.89 51.7383 214.88 51.995C215.98 52.2883 217.062 52.6183 218.125 52.985C219.225 53.3517 220.215 53.8283 221.095 54.415C222.012 55.0017 222.727 55.7533 223.24 56.67C223.754 57.5867 224.01 58.7233 224.01 60.08C224.01 61.6933 223.57 63.1417 222.69 64.425C221.847 65.7083 220.619 66.7167 219.005 67.45C217.392 68.1833 215.43 68.55 213.12 68.55C211.36 68.55 209.765 68.4033 208.335 68.11C206.942 67.8167 205.714 67.4317 204.65 66.955C203.587 66.4783 202.634 65.965 201.79 65.415V59.31H206.52V66.13C206.007 65.8367 205.604 65.5617 205.31 65.305C205.054 65.0117 204.87 64.7183 204.76 64.425C204.687 64.1317 204.669 63.8383 204.705 63.545C204.742 63.2517 204.815 62.94 204.925 62.61C205.512 63.3433 206.209 63.9483 207.015 64.425C207.859 64.865 208.775 65.2133 209.765 65.47C210.792 65.69 211.91 65.8 213.12 65.8C214.477 65.8 215.632 65.6167 216.585 65.25C217.575 64.8467 218.327 64.2783 218.84 63.545C219.39 62.775 219.665 61.895 219.665 60.905ZM242.201 80.265H227.461V78.01H227.571C228.415 78.01 229.166 77.955 229.826 77.845C230.523 77.735 231.055 77.5333 231.421 77.24C231.825 76.9467 232.026 76.5433 232.026 76.03V44.79C232.026 44.24 231.88 43.8183 231.586 43.525C231.293 43.2317 230.853 42.9933 230.266 42.81C229.68 42.6267 228.928 42.4617 228.011 42.315L227.461 42.205V39.895H236.426V46.715L236.921 47.21V77.46C236.921 77.57 237.141 77.6617 237.581 77.735C238.058 77.845 238.608 77.9183 239.231 77.955C239.855 77.9917 240.386 78.01 240.826 78.01H242.201V80.265ZM245.886 68.55C244.346 68.55 242.953 68.3117 241.706 67.835C240.496 67.3583 239.378 66.6067 238.351 65.58C237.361 64.5533 236.371 63.2333 235.381 61.62L235.766 57.99C236.61 59.7133 237.508 61.1617 238.461 62.335C239.451 63.4717 240.533 64.3333 241.706 64.92C242.916 65.47 244.218 65.745 245.611 65.745C246.968 65.745 248.16 65.47 249.186 64.92C250.25 64.3333 251.13 63.5083 251.826 62.445C252.523 61.3817 253.055 60.1167 253.421 58.65C253.788 57.1833 253.971 55.5517 253.971 53.755C253.971 51.995 253.788 50.4 253.421 48.97C253.091 47.54 252.578 46.33 251.881 45.34C251.221 44.3133 250.378 43.5433 249.351 43.03C248.361 42.48 247.206 42.205 245.886 42.205C244.383 42.205 243.026 42.5167 241.816 43.14C240.606 43.7633 239.506 44.6983 238.516 45.945C237.526 47.155 236.61 48.64 235.766 50.4L235.436 46.88C236.463 45.1567 237.49 43.745 238.516 42.645C239.58 41.545 240.735 40.72 241.981 40.17C243.265 39.62 244.731 39.345 246.381 39.345C248.875 39.345 251.075 39.95 252.981 41.16C254.925 42.3333 256.428 44.0017 257.491 46.165C258.591 48.3283 259.141 50.8583 259.141 53.755C259.141 56.6517 258.591 59.2183 257.491 61.455C256.391 63.655 254.833 65.3967 252.816 66.68C250.836 67.9267 248.526 68.55 245.886 68.55Z" fill="#F37726"/>
</svg>
